<?xml version="1.0" standalone="no"?>
<!DOCTYPE svg PUBLIC "-//W3C//DTD SVG 20010904//EN"
 "http://www.w3.org/TR/2001/REC-SVG-20010904/DTD/svg10.dtd">
<svg version="1.0" xmlns="http://www.w3.org/2000/svg"
 width="819.000000pt" height="612.000000pt" viewBox="0 0 819.000000 612.000000"
 preserveAspectRatio="xMidYMid meet">

<g transform="translate(0.000000,612.000000) scale(0.100000,-0.100000)"
fill="#000000" stroke="none">
<path d="M1330 6092 c-144 -88 -181 -123 -219 -207 -12 -27 -28 -61 -36 -75
-61 -109 -71 -156 -42 -188 22 -24 22 -31 -9 -105 -46 -112 -64 -201 -64 -319
0 -60 4 -117 9 -127 6 -10 13 -41 17 -69 6 -45 4 -52 -12 -58 -11 -3 -53 -21
-94 -39 -41 -18 -123 -49 -181 -68 l-107 -35 -12 147 c-25 297 -27 286 -29
-131 l-1 -418 292 0 c161 0 288 4 283 8 -6 5 -45 35 -88 66 -129 96 -157 143
-157 261 0 107 24 156 82 170 23 6 30 3 38 -16 8 -19 10 -13 6 31 l-4 55 15
-35 c8 -19 29 -47 46 -62 17 -16 27 -28 22 -28 -4 0 9 -11 29 -25 20 -14 41
-25 46 -25 6 0 10 -7 10 -17 0 -9 3 -13 7 -10 3 4 11 3 17 -2 6 -5 29 -14 51
-21 22 -7 50 -19 63 -27 12 -7 26 -12 30 -9 4 2 25 -4 46 -15 47 -23 68 -24
105 -5 17 9 33 11 41 6 12 -8 12 -22 -4 -97 -10 -48 -28 -112 -42 -142 -13
-29 -24 -55 -24 -57 0 -2 211 -4 470 -4 l470 0 0 238 0 239 -43 40 c-45 42
-96 73 -120 73 -8 0 -26 9 -40 20 -29 23 -105 35 -290 46 -75 4 -117 11 -117
18 0 6 9 31 20 55 25 55 25 73 0 42 -11 -13 -20 -19 -20 -15 0 5 -6 2 -13 -7
-14 -18 -58 -44 -69 -41 -5 1 -8 -3 -8 -8 0 -6 -6 -10 -14 -10 -8 0 -16 -5
-18 -12 -3 -9 -8 -9 -19 0 -8 7 -32 28 -54 47 -35 31 -41 33 -52 19 -6 -9 -16
-13 -22 -10 -6 4 -8 -2 -6 -14 3 -15 -1 -20 -20 -20 -12 0 -26 -7 -29 -16 -3
-9 -11 -12 -18 -8 -10 6 -10 4 0 -8 7 -9 21 -50 31 -92 14 -58 16 -81 7 -97
-6 -12 -15 -21 -21 -21 -5 0 -18 -6 -27 -15 -9 -8 -22 -12 -27 -8 -6 3 -11 -1
-11 -9 0 -11 -8 -15 -25 -14 -28 3 -35 18 -7 18 27 1 -16 23 -52 27 -17 2 -33
8 -37 14 -4 7 -12 8 -18 5 -6 -4 -11 -2 -11 5 0 6 -13 25 -30 40 -16 16 -27
29 -24 29 3 0 -7 11 -22 25 -20 19 -23 25 -10 25 9 0 16 5 16 10 0 6 -7 10
-15 10 -15 0 -18 9 -16 40 0 10 -1 11 -5 3 -3 -7 -12 -13 -20 -13 -8 0 -14 -4
-14 -10 0 -17 -20 -11 -27 8 -4 9 -18 28 -31 42 -14 14 -21 19 -18 13 4 -7 5
-13 1 -13 -7 0 -29 52 -27 63 1 4 -3 7 -8 7 -6 0 -10 5 -10 11 0 5 4 8 9 5 5
-3 11 5 13 19 3 14 0 26 -8 29 -17 7 -18 58 -1 75 9 11 9 12 0 7 -33 -18 15
169 72 284 18 36 36 76 40 90 4 14 18 40 31 57 14 18 24 35 23 39 0 4 3 10 8
13 16 11 50 65 58 91 10 35 53 78 100 102 51 25 246 29 273 5 9 -8 23 -12 30
-10 8 3 22 -4 33 -16 11 -12 24 -21 29 -21 5 0 7 -6 4 -14 -8 -20 33 -42 91
-49 52 -6 165 -174 165 -247 l1 -35 14 25 c8 14 14 35 15 48 0 12 14 36 30 54
19 20 30 42 31 62 0 17 3 59 5 92 l4 62 -51 61 c-29 33 -61 63 -73 67 -11 4
-43 17 -70 30 -48 23 -58 24 -270 23 l-221 0 -45 -27z"/>
<path d="M2334 6103 c2 -10 7 -54 10 -98 8 -99 33 -391 45 -505 6 -63 9 8 10
268 l1 352 -36 0 c-29 0 -34 -3 -30 -17z"/>
<path d="M1320 5710 c-14 -4 -35 -5 -47 -4 -12 2 -24 -3 -27 -12 -5 -14 3 -15
57 -10 59 4 68 2 118 -27 30 -18 66 -38 82 -44 24 -11 27 -10 28 5 0 14 2 14
9 -3 7 -15 9 -16 9 -4 1 28 -145 109 -169 94 -6 -4 -16 -2 -23 3 -7 5 -23 6
-37 2z"/>
<path d="M1271 5601 l-22 -20 26 -17 c24 -16 26 -16 40 2 14 18 14 18 15 -3 0
-29 59 -51 76 -28 20 27 41 16 35 -18 -1 -4 8 -3 19 3 11 6 20 17 20 24 0 23
-40 50 -71 48 -16 -1 -45 5 -65 13 -46 19 -46 19 -73 -4z"/>
<path d="M1943 5559 c-19 -40 -29 -70 -32 -91 -1 -9 -5 -7 -11 3 -5 9 -31 24
-57 33 -26 10 -55 20 -63 23 -14 6 -35 7 -60 4 -5 0 -10 -7 -10 -13 -1 -7 -15
-22 -32 -33 -35 -22 -52 -73 -38 -109 5 -12 9 -16 9 -9 1 20 39 25 63 9 21
-15 21 -16 3 -17 -14 0 -10 -4 12 -12 18 -7 40 -22 48 -34 11 -16 26 -23 48
-23 30 0 35 5 59 58 62 139 79 184 76 209 l-3 27 -12 -25z m-113 -105 c23 -9
38 -19 36 -22 -3 -3 -1 -11 5 -19 6 -7 10 -13 8 -14 -28 -6 -51 -3 -60 8 -6 7
-21 13 -34 13 -12 0 -36 5 -53 11 -25 9 -29 13 -19 24 16 19 68 18 117 -1z
m-130 -44 c0 -5 -4 -10 -9 -10 -6 0 -13 5 -16 10 -3 6 1 10 9 10 9 0 16 -4 16
-10z m90 -46 c0 -8 -7 -14 -15 -14 -17 0 -18 2 -9 24 7 18 24 12 24 -10z"/>
<path d="M1728 5443 c7 -3 16 -2 19 1 4 3 -2 6 -13 5 -11 0 -14 -3 -6 -6z"/>
<path d="M1455 5280 c3 -5 14 -10 23 -10 15 0 15 2 2 10 -20 13 -33 13 -25 0z"/>
<path d="M1000 5266 c0 -8 4 -17 9 -20 5 -4 7 3 4 14 -6 23 -13 26 -13 6z"/>
<path d="M1585 5220 c-3 -5 3 -10 14 -10 12 0 21 5 21 10 0 6 -6 10 -14 10 -8
0 -18 -4 -21 -10z"/>
<path d="M1278 5142 c13 -11 30 -18 39 -15 17 7 7 15 -37 28 l-25 7 23 -20z"/>
</g>
</svg>
