<?xml version="1.0" standalone="no"?>
<!DOCTYPE svg PUBLIC "-//W3C//DTD SVG 20010904//EN"
 "http://www.w3.org/TR/2001/REC-SVG-20010904/DTD/svg10.dtd">
<svg version="1.0" xmlns="http://www.w3.org/2000/svg"
 width="185.000000pt" height="185.000000pt" viewBox="0 0 185.000000 185.000000"
 preserveAspectRatio="xMidYMid meet">
<metadata>
Created by potrace 1.16, written by Peter Selinger 2001-2019
</metadata>
<g transform="translate(0.000000,185.000000) scale(0.030229,-0.030229)"
fill="#000000" stroke="none">
<path d="M3282 5874 c-29 -7 -67 -21 -84 -30 -17 -9 -54 -24 -82 -34 -72 -24
-118 -51 -162 -93 -37 -34 -180 -115 -234 -132 -14 -4 -43 -20 -65 -35 -22
-15 -66 -39 -98 -53 -32 -15 -72 -36 -90 -49 -17 -12 -56 -35 -87 -50 -30 -14
-77 -50 -105 -77 -27 -28 -56 -51 -63 -51 -9 0 -12 -7 -9 -20 3 -11 1 -18 -4
-14 -5 3 -31 -17 -59 -44 -50 -49 -82 -106 -73 -130 3 -8 -4 -16 -15 -19 -12
-3 -25 -17 -30 -32 -5 -14 -19 -37 -31 -50 -11 -13 -21 -28 -21 -33 0 -18 -2
-24 -14 -38 -7 -8 -22 -36 -34 -62 -12 -27 -27 -48 -32 -48 -14 0 -12 -27 3
-33 6 -3 2 -6 -11 -6 -14 -1 -20 -5 -17 -12 4 -6 -7 -23 -24 -38 -17 -15 -31
-32 -31 -37 0 -8 -27 -44 -63 -85 -14 -16 -87 -189 -87 -207 0 -5 -7 -12 -15
-16 -15 -6 -21 -46 -7 -46 10 0 37 -71 33 -89 -1 -7 2 -10 8 -6 7 4 11 -5 11
-22 0 -17 8 -34 20 -43 12 -9 18 -21 14 -32 -3 -12 0 -18 10 -18 13 0 13 -3 0
-27 -7 -16 -14 -38 -14 -50 0 -21 -48 -132 -61 -143 -4 -3 -19 -29 -35 -58
-16 -30 -41 -75 -55 -100 -53 -94 -80 -157 -84 -198 -2 -23 -13 -57 -25 -77
-11 -19 -25 -59 -30 -88 -11 -70 -26 -108 -45 -115 -8 -3 -31 4 -52 16 -31 18
-35 19 -22 3 8 -10 21 -24 30 -30 23 -17 31 -56 19 -87 -5 -14 -12 -61 -16
-103 -3 -43 -11 -107 -16 -143 -5 -36 -11 -115 -12 -175 -2 -62 -8 -120 -15
-133 -6 -12 -8 -28 -4 -35 4 -6 8 -34 9 -62 1 -27 13 -93 26 -145 23 -87 25
-106 18 -225 -3 -72 -10 -136 -14 -143 -12 -20 -59 -40 -122 -51 -85 -16 -199
-53 -270 -90 -54 -27 -266 -85 -409 -111 -49 -9 -252 -61 -396 -101 -59 -16
-114 -29 -123 -29 -15 0 -16 -69 -14 -792 l3 -793 879 -3 c838 -2 878 -1 864
15 -8 10 -18 26 -21 36 -4 9 -14 20 -24 24 -10 4 -27 17 -39 30 -11 12 -24 20
-27 17 -3 -3 -8 4 -12 15 -3 12 -11 19 -16 16 -5 -4 -9 0 -9 9 0 19 -59 68
-73 59 -6 -4 -8 0 -4 10 4 12 -3 19 -28 29 -19 6 -35 16 -35 22 0 13 -79 84
-102 92 -10 3 -16 9 -13 14 3 4 -2 11 -11 14 -8 3 -12 10 -9 16 3 5 -3 10 -14
10 -12 0 -21 4 -21 8 0 9 -49 61 -106 112 -145 132 -218 261 -259 460 -23 113
-24 139 -5 264 40 261 61 335 123 423 38 54 112 110 156 118 17 3 41 9 55 15
15 5 26 6 26 3 0 -4 5 -2 12 5 7 7 20 12 31 12 11 0 15 4 11 12 -4 6 -3 8 4 4
5 -3 13 0 15 6 4 8 6 7 6 -4 1 -9 -4 -20 -9 -23 -8 -5 -7 -12 2 -23 7 -9 9
-13 3 -10 -5 3 -15 0 -22 -7 -10 -10 -9 -14 2 -19 8 -3 22 -3 30 0 8 4 15 1
15 -6 0 -6 -4 -9 -9 -6 -5 3 -11 -7 -13 -24 -2 -16 -1 -27 4 -24 7 4 13 -25
10 -48 -1 -3 4 -8 11 -11 8 -3 12 7 12 33 0 23 -4 36 -10 32 -5 -3 -5 1 2 9
15 18 14 200 -2 192 -6 -4 -6 -2 1 6 6 6 28 13 50 15 34 4 40 1 40 -15 0 -10
-3 -19 -7 -19 -4 0 -10 -7 -13 -16 -5 -13 -1 -15 21 -10 21 5 24 4 13 -4 -8
-5 -24 -10 -35 -11 -16 0 -15 -2 7 -10 20 -8 25 -16 23 -35 -2 -19 2 -24 21
-24 28 0 29 -7 9 -34 -18 -24 -20 -40 -3 -30 13 8 71 14 63 6 -2 -2 2 -11 10
-19 17 -16 19 -39 6 -47 -5 -3 -7 -15 -4 -26 5 -19 14 -24 41 -21 16 2 15 -4
-4 -23 -14 -15 -14 -16 3 -17 10 -1 24 -1 32 0 7 2 10 -2 7 -8 -4 -5 -2 -12 4
-16 5 -3 10 -14 10 -24 0 -12 10 -20 29 -24 23 -5 28 -10 24 -26 -4 -16 -1
-19 16 -14 16 4 21 1 21 -13 0 -9 3 -14 6 -11 4 4 15 -3 25 -14 10 -12 31 -21
52 -22 19 -1 33 -5 30 -9 -2 -5 1 -8 6 -8 15 0 14 -37 -1 -44 -7 -4 -3 -4 10
-2 24 4 28 -4 11 -21 -8 -8 -7 -13 2 -18 7 -5 10 -4 6 2 -8 13 20 26 35 17 6
-4 5 -10 -3 -15 -10 -6 -3 -9 19 -9 18 0 31 -4 28 -9 -7 -11 22 -23 37 -14 6
4 8 0 4 -10 -7 -20 21 -31 40 -16 18 16 29 3 13 -16 -10 -12 -9 -15 6 -17 11
0 26 0 34 0 8 1 25 -1 38 -3 19 -5 22 -10 16 -28 -6 -19 -5 -20 10 -8 13 11
16 11 16 0 0 -8 6 -6 16 7 8 10 13 13 9 7 -4 -8 0 -13 9 -13 9 0 16 -6 16 -14
0 -8 7 -17 16 -20 22 -9 24 -8 24 10 0 8 5 12 10 9 6 -3 10 -14 10 -24 0 -13
7 -18 25 -16 21 3 23 1 15 -15 -12 -22 -14 -50 -2 -35 11 16 30 12 47 -10 l15
-20 16 20 c15 19 16 19 10 1 -5 -15 -4 -17 7 -8 8 7 17 9 20 5 10 -9 9 -25 -1
-19 -4 2 -14 1 -22 -5 -11 -6 -3 -9 28 -10 23 -1 51 -3 62 -4 11 -1 26 -3 33
-4 8 -1 7 -4 -3 -11 -13 -8 -13 -10 2 -10 9 0 20 5 23 10 5 8 11 7 20 0 8 -7
20 -8 26 -4 8 4 9 3 5 -4 -4 -6 2 -17 14 -24 11 -7 20 -19 20 -27 0 -11 3 -11
17 0 15 13 15 12 4 -8 -7 -15 -8 -23 -1 -23 5 0 10 5 10 10 0 6 5 10 11 10 5
0 7 -5 3 -11 -4 -8 -1 -8 12 -1 11 5 25 7 32 5 7 -3 19 1 27 7 12 10 15 10 15
-1 0 -11 2 -11 10 1 5 8 10 10 10 4 0 -6 7 -11 15 -11 8 0 15 4 15 8 0 4 15 5
33 3 23 -4 38 0 54 15 13 12 23 16 25 9 3 -7 10 -4 21 6 11 12 17 13 17 5 0
-10 3 -10 11 -2 17 17 71 -35 60 -56 -5 -9 -6 -29 -4 -45 2 -16 -1 -41 -6 -55
-6 -14 -12 -36 -14 -48 -2 -12 -6 -26 -10 -29 -4 -4 -7 -18 -7 -30 0 -13 -4
-25 -10 -29 -5 -3 -7 -12 -4 -19 3 -8 -2 -31 -12 -52 -9 -22 -18 -48 -20 -59
-5 -32 -20 -75 -59 -165 -20 -47 -39 -94 -42 -105 -3 -11 -9 -24 -13 -30 -4
-5 -27 -46 -50 -90 -23 -44 -51 -89 -61 -101 -11 -11 -19 -25 -19 -31 0 -6 -7
-16 -15 -23 -8 -7 -15 -16 -15 -21 0 -5 731 -9 1700 -9 l1700 0 0 565 0 565
-24 38 c-13 20 -31 44 -41 52 -10 8 -71 78 -135 156 -64 77 -143 165 -174 195
-71 67 -191 149 -218 149 -51 0 -102 26 -166 86 -74 69 -164 114 -231 114 -21
0 -51 4 -67 10 -16 5 -42 11 -59 13 -16 3 -61 12 -100 22 -95 22 -166 35 -255
45 -111 13 -148 19 -220 35 -36 7 -108 17 -160 20 -52 3 -113 8 -135 12 -22 3
-47 6 -55 6 -8 0 -27 8 -42 18 l-26 19 24 67 c14 37 42 96 64 131 22 35 40 67
40 73 0 5 4 9 9 9 12 0 32 60 24 73 -3 5 -1 7 4 4 6 -4 13 -1 16 7 4 10 0 12
-14 9 -10 -3 -19 -12 -19 -19 0 -12 -26 -19 -52 -15 -13 2 -9 -17 5 -23 6 -4
2 -4 -10 -2 -21 4 -28 -4 -24 -26 0 -5 -5 -8 -12 -8 -8 0 -19 -10 -25 -22 -10
-21 -11 -20 -5 7 4 24 3 28 -7 18 -9 -9 -19 -9 -34 -2 -18 9 -19 8 -6 -3 16
-14 25 -39 12 -37 -20 3 -30 -3 -35 -22 -4 -16 -11 -20 -26 -16 -12 3 -19 1
-16 -3 6 -10 -33 -25 -52 -22 -7 2 -13 -2 -13 -8 0 -6 4 -9 9 -5 5 3 13 0 17
-6 4 -7 3 -9 -3 -6 -6 4 -18 -5 -28 -19 -11 -17 -20 -22 -28 -17 -7 5 -18 8
-24 7 -7 -1 -20 -2 -29 -3 -8 0 -13 -4 -11 -8 3 -5 -1 -21 -9 -38 l-14 -30 5
28 c5 27 -9 38 -18 15 -4 -9 -6 -9 -6 -1 -1 6 11 21 25 32 15 12 22 21 15 21
-17 0 -47 -34 -54 -61 -5 -20 -12 -25 -39 -24 -18 1 -39 -3 -47 -9 -8 -6 -16
-10 -18 -8 -1 1 -6 2 -10 2 -5 0 -1 -5 7 -10 13 -8 13 -10 -1 -10 -10 0 -20
11 -23 25 -4 14 -11 23 -17 19 -6 -3 -9 2 -7 12 2 10 -2 19 -9 19 -6 0 -15 3
-19 7 -3 4 3 6 15 3 11 -2 21 0 21 4 0 5 -11 11 -24 13 -19 4 -26 0 -29 -16
-3 -15 -5 -12 -6 9 -1 21 -4 26 -10 16 -6 -9 -11 -10 -15 -2 -4 6 -16 11 -26
11 -13 0 -17 5 -14 14 3 8 0 17 -6 21 -6 3 -10 3 -9 -2 1 -4 0 -19 -1 -33 l-2
-25 -7 25 c-4 14 -3 31 2 38 5 6 7 12 3 12 -3 0 -1 11 4 25 7 19 6 23 -4 19
-8 -3 -26 10 -42 31 -19 26 -29 32 -35 23 -11 -17 -24 16 -15 38 4 10 2 14 -6
11 -7 -2 -23 4 -34 15 -21 19 -21 19 -27 -1 -3 -12 -1 -21 4 -21 5 0 9 -10 8
-22 l0 -23 -9 22 c-6 16 -15 21 -27 17 -10 -3 -14 -2 -8 3 14 12 14 40 0 40
-7 0 -10 -8 -7 -20 4 -15 2 -18 -9 -12 -8 5 -6 -1 4 -12 18 -21 18 -22 -3 -33
-16 -9 -25 -9 -33 -1 -6 6 -17 11 -24 11 -15 0 -13 -81 2 -93 13 -10 -24 -39
-39 -29 -12 7 -18 9 -41 11 -8 0 -15 8 -15 17 0 14 -2 15 -17 3 -11 -10 -14
-10 -9 -1 5 8 1 11 -16 8 -13 -2 -27 0 -33 4 -12 9 -99 30 -91 23 3 -4 2 -11
-3 -17 -14 -17 5 -55 26 -52 10 2 22 -2 26 -8 6 -7 7 -4 3 6 -3 10 -1 20 4 23
18 11 15 -31 -4 -52 -15 -17 -23 -20 -38 -12 -10 5 -16 14 -13 19 3 5 0 12 -6
16 -8 4 -9 3 -5 -4 4 -7 2 -12 -3 -12 -6 0 -11 5 -11 11 0 5 -5 7 -10 4 -6 -3
-13 1 -16 9 -3 9 -13 16 -22 16 -8 0 -24 8 -34 17 -16 15 -48 27 -48 18 0 -1
19 -15 43 -30 23 -15 49 -34 57 -41 8 -8 30 -25 47 -40 18 -14 32 -28 32 -32
-3 -20 2 -25 11 -12 14 22 13 -25 -1 -52 -6 -11 -9 -22 -6 -24 2 -3 12 10 20
28 16 32 17 32 15 6 -1 -15 -6 -24 -11 -21 -5 3 -7 0 -5 -8 3 -8 11 -13 17
-12 16 4 14 -2 -6 -18 -9 -8 -14 -9 -10 -3 3 6 0 11 -8 11 -9 0 -11 -4 -6 -11
5 -6 9 -24 9 -40 0 -15 6 -32 13 -37 11 -7 9 -9 -5 -9 -19 0 -19 0 -1 -13 10
-8 15 -19 11 -25 -5 -8 -2 -10 8 -6 9 3 16 1 16 -6 0 -6 4 -9 10 -5 10 6 6
-97 -5 -115 -3 -5 -1 -10 6 -10 7 0 9 -3 6 -6 -3 -4 -2 -14 3 -24 6 -11 4 -24
-6 -38 -9 -13 -11 -23 -4 -27 6 -4 9 -1 8 6 -2 6 3 14 11 17 8 3 11 0 7 -7 -4
-6 -1 -11 6 -11 7 -1 2 -7 -11 -14 -15 -8 -20 -16 -12 -20 6 -4 11 -1 11 6 0
8 5 6 11 -5 6 -10 8 -24 5 -32 -3 -8 0 -16 7 -19 7 -2 4 -5 -5 -5 -10 -1 -18
-7 -18 -14 0 -24 -25 -67 -39 -67 -10 0 -11 -3 -2 -14 10 -12 9 -13 -8 -9 -13
3 -24 -2 -32 -15 -10 -16 -18 -18 -41 -12 -27 8 -32 6 -29 -14 1 -5 -6 -3 -15
5 -13 11 -18 11 -21 1 -3 -6 -10 -9 -16 -5 -6 4 -8 0 -4 -10 3 -10 2 -17 -3
-17 -6 0 -10 -9 -10 -20 0 -11 -4 -20 -9 -20 -5 0 -7 10 -5 23 4 20 4 20 -4 2
-10 -23 -82 -31 -82 -8 0 7 -4 13 -10 13 -5 0 -10 -13 -10 -30 0 -20 -5 -30
-15 -30 -8 0 -15 -6 -15 -14 0 -22 -24 -25 -48 -6 -13 11 -20 24 -16 34 9 22
-19 21 -39 -2 -10 -10 -16 -21 -15 -23 2 -2 -3 2 -9 10 -16 19 -16 31 2 55 12
16 17 17 30 6 9 -8 15 -8 15 -2 0 6 12 12 27 14 21 2 27 9 30 33 l4 30 -30
-29 c-32 -30 -61 -30 -61 1 0 14 -2 15 -9 4 -14 -22 -31 -3 -24 29 3 20 1 30
-6 30 -7 0 -11 -8 -9 -18 2 -12 -5 -18 -25 -20 -18 -2 -25 -8 -21 -15 4 -7 3
-8 -2 -4 -5 5 -10 13 -10 18 -3 19 -5 24 -12 37 -10 16 -44 4 -35 -12 4 -8 2
-8 -7 1 -7 6 -19 9 -28 6 -10 -4 -13 -2 -8 5 4 7 1 15 -8 18 -8 3 -12 12 -9
21 3 8 -7 3 -22 -11 -15 -14 -32 -26 -36 -26 -10 0 7 48 24 69 10 12 9 13 -10
3 -19 -10 -20 -9 -16 8 4 16 2 19 -11 14 -9 -3 -16 -10 -16 -15 0 -14 -42 -59
-51 -53 -5 2 -6 12 -3 22 5 14 4 15 -5 2 -5 -8 -13 -11 -17 -7 -4 4 -2 13 4
19 15 15 16 31 0 22 -7 -5 -8 -3 -4 5 5 7 19 16 32 21 13 5 24 15 24 21 0 6
-7 9 -15 5 -8 -3 -15 -1 -15 5 0 7 -10 9 -24 5 -25 -6 -36 7 -36 44 0 9 -7 23
-15 30 -12 10 -18 7 -32 -19 -21 -36 -34 -41 -25 -9 4 17 2 20 -13 15 -9 -4
-24 -2 -31 4 -11 9 -11 13 1 25 18 19 25 18 26 -3 0 -12 2 -13 6 -5 4 9 9 10
18 2 15 -12 26 7 20 36 -2 11 -4 23 -4 27 -1 5 -5 5 -11 2 -5 -3 -10 -2 -10 3
0 6 -9 8 -20 5 -11 -3 -20 -1 -20 4 0 15 45 50 58 45 7 -2 12 1 12 7 0 14 -11
14 -46 1 -33 -13 -61 4 -43 26 9 11 7 14 -7 15 -11 0 -14 3 -6 6 22 9 13 20
-13 15 -23 -4 -31 5 -26 31 1 5 -3 6 -9 2 -5 -3 -10 -13 -10 -22 0 -11 -4 -13
-13 -5 -6 5 -21 11 -31 13 -19 4 -19 5 -2 21 19 19 41 25 31 8 -3 -5 -1 -10 5
-10 21 0 4 24 -21 30 -35 8 -10 21 53 26 28 2 53 6 55 7 9 10 -53 58 -69 54
-10 -3 -20 -1 -23 4 -7 10 -75 9 -75 -2 0 -5 -8 -5 -17 -2 -25 10 31 32 81 33
30 0 37 3 28 12 -8 8 -8 17 -1 30 9 18 8 18 -10 8 -24 -12 -41 -6 -41 15 0 14
-29 10 -40 -5 -9 -13 -111 -60 -104 -48 5 7 -1 9 -20 4 -15 -4 -26 -2 -26 4 0
5 4 10 9 10 5 0 11 7 14 14 4 10 1 13 -8 9 -8 -3 -18 2 -21 12 -4 9 -13 14
-23 11 -14 -6 -14 -5 0 6 8 7 24 25 33 41 15 21 15 27 4 27 -8 0 -19 -5 -25
-11 -7 -7 -14 -6 -24 3 -8 7 -22 13 -31 13 -10 0 -17 5 -15 10 1 6 8 9 15 9 6
-1 12 7 12 17 0 13 -7 19 -21 19 -16 0 -19 4 -14 23 3 12 3 17 -2 12 -17 -22
-55 -3 -46 23 4 9 15 24 25 33 10 9 15 19 12 22 -8 8 -44 -25 -44 -40 0 -7 -4
-13 -10 -13 -5 0 -10 7 -10 15 0 9 -6 12 -16 8 -11 -4 -15 0 -14 13 5 40 0 75
-10 69 -10 -6 -26 42 -16 52 3 3 2 11 -3 17 -14 19 -31 78 -25 88 3 5 17 -1
30 -13 l24 -22 0 22 c0 12 -4 19 -10 16 -16 -10 -12 12 6 30 9 8 13 22 10 30
-3 8 2 22 11 30 8 9 13 18 10 21 -7 7 -57 -18 -57 -28 0 -5 -7 -17 -16 -26
-15 -15 -16 -14 -9 8 4 14 12 27 16 28 5 2 6 8 3 14 -3 5 2 8 11 6 30 -5 31
46 1 65 -23 16 -23 17 -11 76 7 36 9 61 3 61 -12 0 1 85 18 119 12 22 12 26
-1 29 -16 4 -9 32 9 32 20 0 38 38 26 60 -7 12 -7 21 0 25 14 9 12 45 -2 45
-8 0 -9 3 -3 8 10 7 15 22 19 52 2 8 5 23 9 33 15 38 20 53 23 66 1 8 8 17 14
21 7 4 9 16 5 29 -4 12 -2 21 4 21 6 0 11 8 11 18 0 9 7 26 15 36 8 11 15 28
15 39 0 10 5 15 10 12 6 -4 10 -3 9 2 -5 29 4 62 21 81 11 12 20 26 20 33 0
15 61 123 72 127 5 2 17 23 28 46 10 24 26 48 34 55 8 7 18 25 21 41 3 16 13
34 20 40 8 7 34 51 59 98 24 48 51 100 60 116 8 16 13 33 10 38 -3 5 0 7 7 6
7 -2 22 20 33 50 12 28 26 52 33 52 6 0 17 14 25 30 7 17 16 30 20 30 5 0 8 7
8 15 0 8 4 14 8 13 8 -3 42 26 98 81 13 13 24 31 24 40 -1 11 -11 5 -32 -19
l-31 -35 19 33 c26 46 43 59 54 42 6 -9 12 -5 24 17 8 17 22 33 31 37 8 3 15
9 14 13 -4 27 4 45 26 55 14 6 25 17 25 25 0 7 8 13 17 13 9 0 13 3 10 6 -3 4
-2 14 3 24 5 9 11 29 14 45 3 15 11 35 19 44 8 9 12 21 10 28 -2 6 1 15 8 19
8 5 9 3 4 -6 -5 -9 -4 -11 3 -6 7 4 9 18 6 31 -5 20 -1 27 20 36 14 7 26 16
26 21 0 4 6 8 13 8 15 0 54 38 50 49 -2 3 2 6 8 6 6 0 23 13 38 28 16 15 38
29 49 32 11 2 30 13 41 24 24 24 90 39 100 22 6 -9 11 -8 21 4 28 34 56 42
164 48 40 2 50 -1 54 -16 4 -17 6 -17 23 -1 17 15 19 15 25 1 5 -15 8 -15 21
-2 19 20 67 20 60 1 -7 -19 32 -17 51 1 16 15 52 17 52 3 0 -5 13 -7 30 -3 23
4 30 2 30 -10 0 -10 8 -15 20 -14 11 1 20 7 20 15 0 10 4 10 16 -2 19 -20 28
-20 44 -1 15 18 31 20 28 3 -4 -17 40 -22 58 -7 11 9 18 9 26 1 9 -9 6 -12
-12 -12 -35 0 -12 -19 25 -21 17 -1 38 2 48 6 12 5 17 3 17 -9 0 -9 5 -16 11
-16 5 0 7 5 4 10 -3 6 0 10 8 10 14 0 55 -38 80 -74 11 -15 17 -16 34 -7 16 8
24 7 34 -5 9 -11 14 -12 19 -3 10 15 33 1 26 -16 -3 -8 3 -17 14 -20 11 -3 28
-17 39 -31 10 -13 24 -24 29 -24 6 0 15 -7 20 -16 5 -9 13 -15 18 -15 19 2 44
-11 39 -20 -3 -5 1 -6 9 -3 11 4 16 0 16 -10 0 -19 -31 -21 -48 -4 -9 9 -12 9
-12 1 0 -7 5 -15 11 -18 6 -4 8 -13 5 -21 -3 -8 1 -17 10 -21 9 -3 11 -8 6
-12 -6 -3 4 -16 23 -28 31 -20 40 -15 22 14 -4 6 -3 14 2 17 5 4 15 -7 23 -24
7 -16 19 -30 25 -30 15 0 17 16 3 25 -5 3 -10 11 -10 17 0 7 14 -1 30 -17 17
-16 30 -34 30 -39 0 -6 -4 -5 -9 3 -7 11 -15 12 -30 5 l-21 -9 20 -30 c13 -20
20 -24 20 -14 0 24 28 32 35 10 3 -11 15 -21 25 -24 15 -4 20 0 21 16 0 21 1
21 9 2 5 -11 9 -16 9 -12 1 4 11 -1 23 -13 12 -11 25 -20 29 -20 3 0 10 -15
14 -32 l8 -33 6 34 c3 19 11 36 17 38 13 4 49 -41 57 -72 4 -16 5 -17 6 -2 0
9 5 17 10 17 13 0 34 -57 25 -72 -4 -7 -4 -10 1 -6 11 10 35 -25 52 -76 12
-38 13 -38 10 -8 -2 17 0 32 5 32 4 0 8 -7 8 -15 0 -15 49 -92 56 -87 11 6 24
1 24 -11 0 -7 10 -28 23 -47 13 -19 34 -60 46 -90 13 -30 30 -69 38 -86 7 -17
13 -35 12 -40 -4 -16 13 -84 22 -90 5 -3 18 -23 29 -44 24 -47 26 -131 7 -207
-9 -35 -10 -50 -3 -47 6 3 2 -2 -8 -10 -11 -9 -15 -16 -9 -16 6 0 8 -11 5 -25
-2 -14 -11 -25 -19 -25 -8 0 -11 -4 -8 -10 3 -5 1 -10 -5 -10 -6 0 -8 -4 -5
-10 3 -5 2 -10 -4 -10 -5 0 -8 -8 -6 -17 4 -25 -6 -38 -16 -22 -6 10 -9 4 -9
-18 0 -18 -5 -33 -11 -33 -6 0 -8 -7 -5 -16 3 -8 2 -12 -4 -9 -5 3 -16 -8 -24
-24 -12 -23 -13 -31 -3 -34 9 -4 9 -6 0 -6 -7 -1 -13 -8 -13 -16 0 -9 -6 -12
-15 -9 -9 4 -15 0 -15 -10 0 -9 -4 -16 -8 -16 -5 0 -7 -14 -6 -30 1 -17 -2
-33 -7 -36 -5 -3 -7 -9 -4 -14 3 -4 1 -19 -4 -32 l-10 -23 -7 22 c-3 13 -10
20 -15 17 -5 -3 -9 -1 -9 5 0 5 -8 17 -17 27 -10 10 -18 25 -18 33 0 9 -9 16
-20 16 -11 0 -24 10 -30 23 -5 12 -16 20 -23 17 -8 -3 -10 0 -6 7 5 8 2 9 -9
5 -12 -4 -22 2 -32 21 -13 22 -15 23 -10 5 4 -13 2 -23 -4 -23 -5 0 -11 7 -13
16 -2 10 -15 18 -32 20 -15 2 -36 9 -45 17 -27 24 -107 49 -133 43 -15 -4 -11
0 12 13 l35 20 -28 1 c-16 0 -37 5 -47 10 -13 7 -28 7 -45 0 -24 -9 -26 -8
-21 6 5 14 4 15 -9 4 -8 -7 -15 -10 -15 -6 0 4 -18 -3 -40 -14 -22 -11 -40
-16 -40 -10 0 18 -18 10 -23 -11 -4 -15 -2 -19 9 -15 16 6 19 -10 3 -20 -8 -4
-7 -9 2 -15 10 -5 0 -14 -31 -27 -32 -14 -49 -17 -58 -9 -7 6 -12 6 -11 1 4
-21 -2 -28 -11 -14 -8 13 -10 13 -10 -2 0 -12 -6 -15 -23 -13 -32 6 -84 -45
-98 -98 -6 -23 -17 -54 -25 -68 -7 -14 -10 -29 -7 -33 4 -4 1 -11 -7 -16 -12
-8 -12 -10 -1 -10 10 0 11 -3 2 -13 -6 -8 -8 -24 -6 -38 3 -13 6 -36 7 -51 1
-16 6 -28 10 -28 4 0 8 -10 9 -22 1 -13 7 -2 16 27 8 28 19 63 25 78 l11 29
23 -25 c13 -14 49 -38 81 -53 32 -15 62 -34 67 -42 4 -8 17 -21 27 -30 24 -21
25 -33 2 -25 -15 6 -16 4 -6 -8 10 -12 10 -18 0 -28 -6 -7 -7 -12 -2 -11 25 5
46 -1 39 -11 -4 -6 1 -10 12 -8 11 1 30 -3 44 -8 14 -6 29 -8 34 -5 5 3 6 0 2
-6 -4 -7 -1 -12 8 -12 9 0 15 -3 15 -7 -1 -5 0 -10 1 -13 1 -3 4 -22 5 -43 3
-44 13 -57 44 -60 19 -1 25 -9 22 -30 -2 -13 33 -3 47 13 10 13 11 12 5 -4 -4
-13 -3 -17 5 -12 7 4 12 2 12 -3 0 -15 43 -14 58 1 9 9 12 8 12 -5 0 -9 5 -17
10 -17 6 0 10 5 10 11 0 5 5 7 10 4 6 -4 19 -1 28 6 9 7 6 1 -8 -13 -14 -14
-29 -23 -34 -20 -5 3 -6 0 -2 -7 6 -8 12 -9 20 -2 7 6 16 7 20 3 4 -4 6 -2 5
3 -2 6 5 22 15 37 10 15 15 32 12 37 -4 5 -2 12 3 15 14 9 50 83 44 90 -4 3
-1 6 5 6 7 0 12 5 12 11 0 6 23 40 50 74 54 68 80 120 80 160 0 33 32 95 85
166 49 66 76 133 100 244 25 117 33 143 74 220 52 99 74 161 67 193 -3 15 -3
21 1 14 3 -9 11 -4 24 17 19 32 27 59 9 31 -15 -24 -11 2 5 30 14 25 14 25 15
3 0 -34 20 -28 27 7 3 20 16 36 33 45 52 27 126 142 134 207 1 13 10 37 18 53
26 49 24 135 -4 208 -11 28 4 63 23 51 5 -3 9 2 9 10 0 9 5 16 11 16 5 0 7 5
4 11 -10 15 -13 129 -4 123 16 -9 -21 67 -41 86 -22 21 -43 52 -30 45 17 -9
-5 18 -59 75 -18 19 -41 51 -51 71 -10 19 -26 41 -34 48 -9 8 -16 24 -16 37 0
13 -5 24 -12 24 -6 0 -8 3 -5 6 7 7 -42 54 -56 54 -10 0 -196 91 -276 135 -36
20 -81 51 -100 71 -23 23 -53 40 -90 50 -54 14 -79 24 -111 42 -8 5 -22 13
-31 18 -9 5 -36 22 -60 38 -100 67 -279 116 -425 116 -39 0 -93 7 -120 15
-117 37 -232 65 -269 64 -22 0 -64 -7 -93 -15z m732 -2396 c-5 -8 -2 -9 10 -5
9 4 15 3 12 -2 -4 -5 15 -11 42 -14 26 -2 63 -10 82 -16 61 -22 164 -75 186
-96 12 -11 36 -33 53 -49 30 -28 36 -54 12 -48 -6 1 -11 -2 -11 -8 0 -5 4 -10
10 -10 5 0 14 -9 19 -19 9 -16 8 -18 -8 -14 -15 4 -18 0 -16 -19 4 -31 -29
-35 -49 -6 -8 11 -19 17 -25 14 -25 -16 -84 8 -136 55 -49 45 -55 48 -69 33
-9 -8 -16 -11 -16 -6 0 5 -11 12 -24 14 -19 4 -23 1 -18 -11 5 -15 4 -15 -14
0 -19 16 -144 78 -197 98 -27 10 -52 7 -127 -15 -24 -7 -24 -7 -7 10 10 10 21
16 24 12 3 -3 11 -1 18 4 17 14 152 25 167 13 7 -6 26 -13 43 -16 28 -5 28 -4
10 9 -11 8 -38 19 -60 25 -22 6 -45 15 -51 20 -6 5 -15 5 -20 1 -4 -4 -2 1 5
11 14 18 26 24 16 7 -3 -5 -1 -10 4 -10 6 0 11 6 11 14 0 10 12 13 49 10 34
-2 53 1 61 11 15 18 24 20 14 3z"/>
<path d="M2448 4377 c-14 -12 -43 -35 -63 -51 -33 -27 -35 -31 -18 -37 11 -4
39 -3 64 1 85 15 175 21 159 9 -12 -8 -10 -9 8 -4 29 8 124 14 117 7 -2 -3 7
-11 22 -19 14 -7 28 -11 31 -8 3 3 0 5 -6 5 -7 0 -12 5 -12 10 0 14 32 12 53
-4 18 -14 18 -15 0 -25 -16 -10 -15 -11 7 -10 55 3 69 -3 129 -51 34 -27 68
-50 74 -50 7 0 32 -18 55 -41 24 -22 58 -46 75 -51 18 -6 60 -31 93 -55 69
-49 74 -50 74 -25 0 10 4 22 9 28 5 5 11 18 14 29 3 16 6 13 12 -13 5 -23 11
-30 18 -23 7 7 7 18 -1 33 -6 13 -17 37 -23 53 -10 27 -12 28 -19 10 -7 -17
-9 -17 -9 -3 -1 11 -24 31 -57 49 -31 18 -58 38 -61 45 -3 7 -21 23 -41 35
-111 68 -157 84 -224 80 -39 -3 -54 15 -18 21 12 2 21 8 20 13 0 6 -33 9 -81
9 -59 -2 -78 1 -70 9 20 20 12 30 -19 23 -23 -4 -29 -2 -25 7 4 6 -3 1 -15
-13 -12 -14 -19 -19 -15 -12 8 16 -41 14 -107 -4 -42 -11 -46 -11 -41 3 5 13
2 15 -13 9 -35 -14 -84 -19 -84 -8 0 5 7 12 15 16 15 5 21 26 8 26 -5 0 -20
-11 -35 -23z"/>
<path d="M2480 4082 c0 -7 15 -12 33 -13 l32 -1 -40 -13 -40 -14 40 1 c22 1
46 6 53 11 8 6 12 6 12 -2 0 -6 -5 -11 -11 -11 -5 0 -7 -6 -3 -12 4 -7 4 -10
-1 -6 -4 4 -14 3 -21 -2 -12 -10 -40 -17 -117 -27 -49 -7 -53 -17 -12 -33 21
-8 36 -22 40 -37 3 -12 12 -23 19 -23 8 0 16 -4 18 -9 5 -16 95 -24 103 -11 4
7 1 16 -6 21 -10 6 -9 9 6 14 11 4 27 10 36 15 23 12 29 3 29 -45 0 -23 6 -48
13 -57 22 -29 91 -65 145 -75 l53 -10 27 34 c15 19 35 44 45 56 l18 21 6 -22
c3 -12 10 -22 17 -22 10 -1 44 -41 64 -77 4 -6 14 -13 22 -15 8 -2 21 -9 28
-15 7 -7 19 -13 25 -13 8 0 7 3 -2 9 -8 5 -10 14 -6 21 5 9 4 11 -3 6 -11 -6
-11 11 -2 44 1 3 6 -6 11 -19 9 -23 10 -23 22 -6 16 20 15 42 -1 71 -6 12 -9
23 -7 26 14 13 -129 133 -180 151 -18 6 -18 5 3 -12 l22 -20 -21 -6 c-14 -5
-25 -2 -30 6 -6 10 -9 11 -9 2 0 -7 -5 -13 -11 -13 -5 0 -7 5 -4 10 3 6 -1 10
-10 10 -9 0 -13 -4 -10 -10 3 -5 2 -10 -3 -10 -16 0 -147 43 -159 52 -6 5 -24
11 -40 14 -57 9 -74 15 -68 24 4 6 -2 7 -12 3 -14 -5 -15 -3 -7 6 8 8 41 13
90 13 112 0 53 16 -88 25 -79 4 -108 3 -108 -5z"/>
</g>
</svg>
